<svg width="383" height="105" viewBox="0 0 383 105" fill="none" xmlns="http://www.w3.org/2000/svg">
<path d="M27.3045 43.783C23.5702 43.6567 20.6362 46.8996 20.7204 51.0409C20.8046 55.1262 23.7949 59.1413 27.473 59.422C31.2353 59.7028 34.2957 55.9545 34.2817 51.785C34.2957 47.5454 31.137 43.9234 27.3045 43.783Z" fill="#E6E6E5"/>
<path d="M47.94 38.1533C42.7457 38.055 38.843 43.502 40.8786 49.2298C42.858 54.8171 48.9508 56.951 53.05 52.585C56.1104 49.3421 56.4333 44.1197 53.3729 40.7083C51.9831 39.15 50.0458 38.1954 47.94 38.1533Z" fill="#E6E6E5"/>
<path d="M71.356 45.3123C69.0396 45.2281 66.8917 46.0985 65.3054 47.5725C59.704 52.8089 63.719 62.1446 70.4155 62.65C75.0622 63.0009 79.1474 58.8876 79.4563 54.2409C79.7792 49.5239 76.1011 45.4808 71.356 45.3123Z" fill="#E6E6E5"/>
<path d="M70.0084 66.1733C65.2634 65.7802 61.3185 69.1495 61.122 73.7401L60.5323 88.2841L77.3085 90.6005L78.3333 75.523C78.6421 70.806 74.8798 66.5804 70.0084 66.1733Z" fill="#E6E6E5"/>
<path d="M47.645 58.3251C43.3351 58.0303 39.8676 61.3855 39.8255 65.8217L39.671 85.4056L54.7906 87.4973L55.4364 67.2115C55.5908 62.663 52.0812 58.6339 47.645 58.3251Z" fill="#E6E6E5"/>
<path d="M94.4783 20.6587L11.3278 22.4556C6.69509 22.5539 3.1433 26.934 3.39599 32.4932L5.67028 82.1758C5.88086 86.8647 9.41854 90.992 13.6582 91.6939L27.3318 93.9541L34.5336 104.301L34.5195 71.0151C34.5195 68.9374 33.7474 66.9159 32.3997 65.3295C29.606 62.0726 25.0996 61.6654 22.4323 64.4451C21.1127 65.8209 20.509 67.688 20.5511 69.5691L20.9021 85.6574L13.4336 84.5623C12.8861 84.4781 12.6334 83.72 12.6193 83.1585C10.7382 29.3907 10.7242 32.1984 11.019 31.5386C11.1453 31.2719 11.3419 31.0472 11.6367 31.0472C98.353 31.2017 93.7764 31.0894 94.1414 31.3561C94.4503 31.5807 94.6047 32.0019 94.6608 32.395C94.731 32.8723 89.3262 94.5578 89.3683 94.0805C89.3121 94.7684 88.891 95.5545 88.1189 95.4422C87.3046 95.3159 41.0194 88.5774 39.6857 88.3809L39.6296 95.9616C40.4298 96.088 85.4655 103.514 87.4029 103.837C93.7062 104.876 99.3217 101.254 99.8972 95.5827L106.411 33.0969C107.127 26.0495 101.694 20.5043 94.4783 20.6587Z" fill="#E6E6E5"/>
<path d="M118.667 2.05791L19.7229 7.70137C16.2414 7.89791 13.5319 10.4951 12.479 13.9065C11.8473 15.9561 11.9877 17.4582 12.0579 19.213L17.4066 19.0727L17.3645 17.4441C17.3223 15.6612 18.1647 13.7099 19.8774 13.6397L114.455 9.73698C118.611 9.56852 121.629 12.6991 121.152 16.658C112.055 91.7925 112.757 87.0896 112.209 88.1004C111.746 88.9427 110.988 89.5744 110.033 89.8411C109.107 90.0938 108.994 89.9956 103.519 89.2797L102.902 95.0354C108.138 95.7935 109.64 96.1726 112.167 95.6391C116.238 94.7827 119.214 91.7364 119.776 87.4967L129.533 13.9345C130.459 6.71867 125.813 1.65079 118.667 2.05791Z" fill="#E6E6E5"/>
<path d="M23.9214 41.7611C20.1872 41.6347 17.2531 44.8777 17.3373 49.0191C17.4216 53.1043 20.4118 57.1193 24.0899 57.4001C27.8522 57.6809 30.9126 53.9325 30.9126 49.7631C30.9126 45.5234 27.754 41.8874 23.9214 41.7611Z" fill="#142E45"/>
<path d="M44.5567 36.1313C39.3624 36.033 35.4597 41.466 37.4953 47.2078C39.4887 52.7951 45.5675 54.929 49.6667 50.563C52.7271 47.3201 53.05 42.0977 49.9896 38.6864C48.5998 37.1281 46.6625 36.1734 44.5567 36.1313Z" fill="#3797EF"/>
<path d="M67.9592 43.2773C65.6428 43.1931 63.4949 44.0635 61.9085 45.5375C56.3072 50.7739 60.3222 60.1096 67.0186 60.615C71.6513 60.9659 75.7506 56.8526 76.0735 52.2059C76.3964 47.5029 72.7183 43.4458 67.9592 43.2773Z" fill="#142E45"/>
<path d="M66.6268 64.1388C61.8818 63.7457 57.9369 67.115 57.7404 71.7056L57.1508 86.2496L73.9269 88.566L74.9517 73.4885C75.2605 68.7856 71.4982 64.5459 66.6268 64.1388Z" fill="#142E45"/>
<path d="M44.2616 56.2901C39.9518 55.9953 36.4842 59.3504 36.4421 63.7866L36.2877 83.3705L51.4073 85.4622L52.053 65.1764C52.2074 60.6279 48.6978 56.5989 44.2616 56.2901Z" fill="#3797EF"/>
<path d="M91.095 18.6237L7.94452 20.4066C3.31179 20.5049 -0.240005 24.8849 0.0126896 30.4442L2.28698 80.1267C2.49755 84.8016 6.03528 88.943 10.2749 89.6309L23.9485 91.8911L31.1503 102.238L31.1362 68.952C31.1362 66.8743 30.3641 64.8527 29.0164 63.2664C26.2087 60.0094 21.7164 59.6023 19.049 62.3819C17.7294 63.7577 17.1257 65.6249 17.1678 67.5061L17.5188 83.5942L10.0503 82.5133C9.50281 82.4291 9.25009 81.671 9.23605 81.1095C7.35488 27.3417 7.34086 30.1494 7.63567 29.4895C7.74798 29.2228 7.95856 28.9982 8.25337 28.9982C94.9697 29.1527 90.3931 29.0403 90.7581 29.307C91.067 29.5317 91.2214 29.9528 91.2916 30.3459C91.3618 30.8232 85.9569 92.5228 85.999 92.0314C85.9429 92.7193 85.5217 93.5055 84.7496 93.3932C83.9354 93.2669 37.6502 86.5283 36.3165 86.3318L36.2603 93.9126C37.0605 94.039 82.0963 101.465 84.0336 101.788C90.3369 102.827 95.9383 99.2051 96.528 93.5336L103.042 31.0478C103.744 24.0145 98.3109 18.4693 91.095 18.6237Z" fill="#142E45"/>
<path d="M115.284 0.0228214L16.3396 5.66636C12.8581 5.8629 10.1346 8.46001 9.09572 11.8714C8.46398 13.921 8.60438 15.4231 8.67458 17.1779L14.0233 17.0376L13.9812 15.4091C13.939 13.6262 14.7814 11.6748 16.4941 11.6047L111.072 7.70189C115.227 7.53342 118.246 10.6641 117.768 14.623C108.671 89.7575 109.373 85.0685 108.826 86.0653C108.363 86.9076 107.604 87.5393 106.65 87.806C105.723 88.0587 105.597 87.9605 100.136 87.2446L99.5182 93.0004C104.755 93.7584 106.257 94.1375 108.784 93.604C112.855 92.7476 115.831 89.7153 116.393 85.4616L126.149 11.8995C127.076 4.6977 122.429 -0.384298 115.284 0.0228214Z" fill="#3797EF"/>
<path d="M182.323 79L172.198 64.375H171.598H161.023V79H148.873V26.5H171.598C176.248 26.5 180.273 27.275 183.673 28.825C187.123 30.375 189.773 32.575 191.623 35.425C193.473 38.275 194.398 41.65 194.398 45.55C194.398 49.45 193.448 52.825 191.548 55.675C189.698 58.475 187.048 60.625 183.598 62.125L195.373 79H182.323ZM182.098 45.55C182.098 42.6 181.148 40.35 179.248 38.8C177.348 37.2 174.573 36.4 170.923 36.4H161.023V54.7H170.923C174.573 54.7 177.348 53.9 179.248 52.3C181.148 50.7 182.098 48.45 182.098 45.55ZM242.724 58.975C242.724 59.125 242.649 60.175 242.499 62.125H211.974C212.524 64.625 213.824 66.6 215.874 68.05C217.924 69.5 220.474 70.225 223.524 70.225C225.624 70.225 227.474 69.925 229.074 69.325C230.724 68.675 232.249 67.675 233.649 66.325L239.874 73.075C236.074 77.425 230.524 79.6 223.224 79.6C218.674 79.6 214.649 78.725 211.149 76.975C207.649 75.175 204.949 72.7 203.049 69.55C201.149 66.4 200.199 62.825 200.199 58.825C200.199 54.875 201.124 51.325 202.974 48.175C204.874 44.975 207.449 42.5 210.699 40.75C213.999 38.95 217.674 38.05 221.724 38.05C225.674 38.05 229.249 38.9 232.449 40.6C235.649 42.3 238.149 44.75 239.949 47.95C241.799 51.1 242.724 54.775 242.724 58.975ZM221.799 46.9C219.149 46.9 216.924 47.65 215.124 49.15C213.324 50.65 212.224 52.7 211.824 55.3H231.699C231.299 52.75 230.199 50.725 228.399 49.225C226.599 47.675 224.399 46.9 221.799 46.9ZM270.014 79.6C265.714 79.6 261.839 78.725 258.389 76.975C254.989 75.175 252.314 72.7 250.364 69.55C248.464 66.4 247.514 62.825 247.514 58.825C247.514 54.825 248.464 51.25 250.364 48.1C252.314 44.95 254.989 42.5 258.389 40.75C261.839 38.95 265.714 38.05 270.014 38.05C274.264 38.05 277.964 38.95 281.114 40.75C284.314 42.5 286.639 45.025 288.089 48.325L279.014 53.2C276.914 49.5 273.889 47.65 269.939 47.65C266.889 47.65 264.364 48.65 262.364 50.65C260.364 52.65 259.364 55.375 259.364 58.825C259.364 62.275 260.364 65 262.364 67C264.364 69 266.889 70 269.939 70C273.939 70 276.964 68.15 279.014 64.45L288.089 69.4C286.639 72.6 284.314 75.1 281.114 76.9C277.964 78.7 274.264 79.6 270.014 79.6ZM313.812 79.6C309.512 79.6 305.637 78.725 302.187 76.975C298.787 75.175 296.112 72.7 294.162 69.55C292.262 66.4 291.312 62.825 291.312 58.825C291.312 54.825 292.262 51.25 294.162 48.1C296.112 44.95 298.787 42.5 302.187 40.75C305.637 38.95 309.512 38.05 313.812 38.05C318.062 38.05 321.762 38.95 324.912 40.75C328.112 42.5 330.437 45.025 331.887 48.325L322.812 53.2C320.712 49.5 317.687 47.65 313.737 47.65C310.687 47.65 308.162 48.65 306.162 50.65C304.162 52.65 303.162 55.375 303.162 58.825C303.162 62.275 304.162 65 306.162 67C308.162 69 310.687 70 313.737 70C317.737 70 320.762 68.15 322.812 64.45L331.887 69.4C330.437 72.6 328.112 75.1 324.912 76.9C321.762 78.7 318.062 79.6 313.812 79.6ZM357.311 79.6C353.061 79.6 349.236 78.725 345.836 76.975C342.486 75.175 339.861 72.7 337.961 69.55C336.061 66.4 335.111 62.825 335.111 58.825C335.111 54.825 336.061 51.25 337.961 48.1C339.861 44.95 342.486 42.5 345.836 40.75C349.236 38.95 353.061 38.05 357.311 38.05C361.561 38.05 365.361 38.95 368.711 40.75C372.061 42.5 374.686 44.95 376.586 48.1C378.486 51.25 379.436 54.825 379.436 58.825C379.436 62.825 378.486 66.4 376.586 69.55C374.686 72.7 372.061 75.175 368.711 76.975C365.361 78.725 361.561 79.6 357.311 79.6ZM357.311 70C360.311 70 362.761 69 364.661 67C366.611 64.95 367.586 62.225 367.586 58.825C367.586 55.425 366.611 52.725 364.661 50.725C362.761 48.675 360.311 47.65 357.311 47.65C354.311 47.65 351.836 48.675 349.886 50.725C347.936 52.725 346.961 55.425 346.961 58.825C346.961 62.225 347.936 64.95 349.886 67C351.836 69 354.311 70 357.311 70Z" fill="#0E2335"/>
</svg>
