<svg width="332" height="92" viewBox="0 0 332 92" fill="none" xmlns="http://www.w3.org/2000/svg">
<g clip-path="url(#clip0_1710_354)">
<path d="M23.6689 37.9528C20.4318 37.8433 17.8885 40.6544 17.9615 44.2442C18.0345 47.7855 20.6266 51.266 23.8149 51.5093C27.0762 51.7527 29.7291 48.5035 29.717 44.8893C29.7291 41.2142 26.991 38.0745 23.6689 37.9528Z" fill="#E6E6E5"/>
<path d="M41.5564 33.0729C37.0538 32.9877 33.6707 37.7094 35.4353 42.6745C37.1511 47.5178 42.4326 49.3675 45.9859 45.5829C48.6388 42.7718 48.9187 38.2448 46.2658 35.2877C45.0611 33.9369 43.3818 33.1094 41.5564 33.0729Z" fill="#E6E6E5"/>
<path d="M61.8541 39.2783C59.8462 39.2053 57.9843 39.9598 56.6092 41.2375C51.7537 45.7766 55.2341 53.8692 61.0389 54.3073C65.0668 54.6115 68.608 51.0459 68.8758 47.018C69.1557 42.9291 65.9674 39.4244 61.8541 39.2783Z" fill="#E6E6E5"/>
<path d="M60.686 57.3615C56.5728 57.0207 53.1532 59.9414 52.9829 63.9207L52.4717 76.528L67.014 78.536L67.9023 65.4662C68.17 61.3773 64.9087 57.7144 60.686 57.3615Z" fill="#E6E6E5"/>
<path d="M41.3009 50.5586C37.5649 50.3031 34.5591 53.2115 34.5226 57.0569L34.3887 74.033L47.495 75.8462L48.0548 58.2617C48.1886 54.3189 45.1463 50.8263 41.3009 50.5586Z" fill="#E6E6E5"/>
<path d="M81.8976 17.9075L9.81924 19.4651C5.80341 19.5503 2.72457 23.3472 2.94362 28.1661L4.91507 71.2329C5.09761 75.2974 8.16422 78.8751 11.8393 79.4836L23.6922 81.4428L29.935 90.4119L29.9228 61.5584C29.9228 59.7574 29.2535 58.005 28.0852 56.6299C25.6636 53.8067 21.7572 53.4537 19.4451 55.8633C18.3012 57.0558 17.7779 58.6743 17.8144 60.3049L18.1186 74.2509L11.6446 73.3016C11.17 73.2286 10.951 72.5715 10.9388 72.0847C9.30815 25.4767 9.29602 27.9106 9.55156 27.3386C9.66104 27.1074 9.83146 26.9127 10.087 26.9127C85.2563 27.0466 81.2891 26.9492 81.6055 27.1804C81.8733 27.3751 82.0071 27.7402 82.0558 28.081C82.1166 28.4947 77.4315 81.9661 77.468 81.5524C77.4193 82.1487 77.0543 82.8301 76.385 82.7327C75.6791 82.6232 35.5572 76.7821 34.4011 76.6117L34.3524 83.183C35.0461 83.2925 74.0849 89.7297 75.7643 90.0097C81.2283 90.9103 86.096 87.7706 86.5949 82.8545L92.2413 28.6894C92.862 22.5805 88.1525 17.7737 81.8976 17.9075Z" fill="#E6E6E5"/>
<path d="M102.865 1.78399L17.0965 6.67597C14.0786 6.84634 11.7299 9.09769 10.8172 12.0548C10.2696 13.8315 10.3913 15.1336 10.4522 16.6547L15.0886 16.5331L15.0521 15.1214C15.0156 13.5759 15.7458 11.8844 17.2304 11.8236L99.2141 8.44052C102.817 8.29449 105.433 11.0082 105.019 14.4399C97.1337 79.5696 97.7422 75.4929 97.2672 76.3691C96.8659 77.0992 96.2088 77.6468 95.381 77.878C94.5783 78.0971 94.4803 78.0119 89.7344 77.3914L89.1995 82.3806C93.7383 83.0378 95.0403 83.3664 97.2308 82.9039C100.76 82.1616 103.339 79.5209 103.827 75.8458L112.284 12.0791C113.087 5.82413 109.06 1.43108 102.865 1.78399Z" fill="#E6E6E5"/>
<path d="M20.7362 36.2004C17.4993 36.0908 14.9559 38.902 15.0289 42.4919C15.102 46.0331 17.694 49.5135 20.8823 49.7569C24.1436 50.0003 26.7965 46.751 26.7965 43.1368C26.7965 39.4617 24.0585 36.3098 20.7362 36.2004Z" fill="#142E45"/>
<path d="M38.6238 31.32C34.1211 31.2348 30.7381 35.9443 32.5027 40.9215C34.2306 45.7648 39.5 47.6146 43.0533 43.83C45.7062 41.0189 45.9861 36.4919 43.3332 33.5348C42.1285 32.1841 40.4492 31.3565 38.6238 31.32Z" fill="#61B3FF"/>
<path d="M58.9098 37.5146C56.9019 37.4416 55.04 38.1961 53.6649 39.4738C48.8094 44.013 52.2898 52.1055 58.0945 52.5436C62.1103 52.8478 65.6637 49.2822 65.9436 45.2543C66.2236 41.1775 63.0352 37.6607 58.9098 37.5146Z" fill="#142E45"/>
<path d="M57.7552 55.5978C53.642 55.2571 50.2224 58.1777 50.0521 62.157L49.541 74.7644L64.0832 76.7723L64.9715 63.7025C65.2392 59.6259 61.9779 55.9507 57.7552 55.5978Z" fill="#142E45"/>
<path d="M38.3681 48.7944C34.6322 48.5389 31.6264 51.4472 31.5899 55.2927L31.4561 72.2688L44.5623 74.0819L45.122 56.4974C45.2559 52.5546 42.2136 49.0621 38.3681 48.7944Z" fill="#61B3FF"/>
<path d="M78.965 16.1438L6.88665 17.6893C2.8708 17.7745 -0.208046 21.5713 0.0109999 26.3903L1.98245 69.4571C2.16498 73.5095 5.23164 77.0995 8.90672 77.6958L20.7596 79.655L27.0024 88.6241L26.9902 59.7705C26.9902 57.9694 26.3209 56.217 25.1526 54.8419C22.7188 52.0186 18.8247 51.6658 16.5125 54.0752C15.3686 55.2678 14.8453 56.8864 14.8818 58.5171L15.186 72.4629L8.71202 71.5259C8.23744 71.4529 8.01837 70.7958 8.0062 70.3091C6.37552 23.701 6.36337 26.1348 6.61892 25.5628C6.71628 25.3316 6.89882 25.1369 7.15437 25.1369C82.3238 25.2708 78.3566 25.1734 78.673 25.4046C78.9407 25.5993 79.0746 25.9644 79.1354 26.3051C79.1963 26.7189 74.5111 80.2026 74.5476 79.7766C74.4989 80.3729 74.1338 81.0544 73.4645 80.9571C72.7588 80.8476 32.6368 75.0063 31.4807 74.836L31.432 81.4073C32.1256 81.5169 71.1645 87.954 72.8439 88.234C78.3078 89.1347 83.1634 85.9951 83.6746 81.0788L89.3212 26.9136C89.9297 20.8168 85.22 16.01 78.965 16.1438Z" fill="#142E45"/>
<path d="M99.9329 0.0197825L14.1639 4.91183C11.146 5.0822 8.78515 7.33348 7.8846 10.2906C7.33699 12.0673 7.45869 13.3694 7.51954 14.8905L12.156 14.7689L12.1195 13.3572C12.083 11.8117 12.8132 10.1202 14.2978 10.0594L96.2817 6.67631C99.8835 6.53027 102.5 9.24407 102.086 12.6758C94.2004 77.8054 94.809 73.7408 94.3348 74.6049C93.9335 75.335 93.2755 75.8826 92.4486 76.1138C91.645 76.3328 91.5358 76.2477 86.802 75.6271L86.2664 80.6165C90.8059 81.2736 92.1079 81.6022 94.2984 81.1397C97.8273 80.3974 100.407 77.7688 100.894 74.0816L109.351 10.315C110.155 4.07216 106.126 -0.333125 99.9329 0.0197825Z" fill="#61B3FF"/>
<path d="M158.045 68.4802L149.268 55.8027H148.748H139.581V68.4802H129.049V22.9712H148.748C152.779 22.9712 156.268 23.643 159.215 24.9866C162.206 26.3302 164.503 28.2372 166.106 30.7077C167.71 33.1782 168.512 36.1038 168.512 39.4845C168.512 42.8651 167.688 45.7907 166.041 48.2612C164.438 50.6883 162.14 52.552 159.15 53.8523L169.357 68.4802H158.045ZM157.85 39.4845C157.85 36.9273 157.026 34.9769 155.379 33.6333C153.732 32.2464 151.327 31.5529 148.163 31.5529H139.581V47.416H148.163C151.327 47.416 153.732 46.7226 155.379 45.3356C157.026 43.9487 157.85 41.9983 157.85 39.4845ZM210.403 51.1218C210.403 51.2518 210.338 52.162 210.208 53.8523H183.747C184.224 56.0194 185.351 57.7314 187.128 58.9883C188.905 60.2452 191.116 60.8737 193.759 60.8737C195.58 60.8737 197.183 60.6136 198.57 60.0935C200.001 59.5301 201.323 58.6632 202.536 57.493L207.932 63.3442C204.638 67.1149 199.827 69.0003 193.499 69.0003C189.555 69.0003 186.066 68.2418 183.032 66.7248C179.998 65.1645 177.658 63.0191 176.011 60.2886C174.364 57.558 173.54 54.4591 173.54 50.9917C173.54 47.5677 174.342 44.4904 175.946 41.7599C177.593 38.986 179.825 36.8406 182.642 35.3236C185.503 33.7633 188.688 32.9832 192.199 32.9832C195.623 32.9832 198.722 33.72 201.496 35.1936C204.27 36.6672 206.437 38.791 207.997 41.5649C209.601 44.2954 210.403 47.481 210.403 51.1218ZM192.264 40.6547C189.967 40.6547 188.038 41.3048 186.478 42.6051C184.918 43.9053 183.964 45.6823 183.617 47.9361H200.846C200.499 45.7257 199.546 43.9703 197.985 42.6701C196.425 41.3265 194.518 40.6547 192.264 40.6547ZM234.059 69.0003C230.331 69.0003 226.972 68.2418 223.982 66.7248C221.035 65.1645 218.716 63.0191 217.025 60.2886C215.378 57.558 214.555 54.4591 214.555 50.9917C214.555 47.5244 215.378 44.4254 217.025 41.6949C218.716 38.9644 221.035 36.8406 223.982 35.3236C226.972 33.7633 230.331 32.9832 234.059 32.9832C237.743 32.9832 240.95 33.7633 243.681 35.3236C246.455 36.8406 248.47 39.0294 249.727 41.8899L241.86 46.1158C240.04 42.9085 237.418 41.3048 233.994 41.3048C231.35 41.3048 229.161 42.1717 227.428 43.9053C225.694 45.639 224.827 48.0011 224.827 50.9917C224.827 53.9823 225.694 56.3445 227.428 58.0781C229.161 59.8118 231.35 60.6786 233.994 60.6786C237.461 60.6786 240.083 59.075 241.86 55.8677L249.727 60.1585C248.47 62.9324 246.455 65.0995 243.681 66.6598C240.95 68.2201 237.743 69.0003 234.059 69.0003ZM272.025 69.0003C268.297 69.0003 264.938 68.2418 261.948 66.7248C259 65.1645 256.682 63.0191 254.991 60.2886C253.344 57.558 252.521 54.4591 252.521 50.9917C252.521 47.5244 253.344 44.4254 254.991 41.6949C256.682 38.9644 259 36.8406 261.948 35.3236C264.938 33.7633 268.297 32.9832 272.025 32.9832C275.709 32.9832 278.916 33.7633 281.647 35.3236C284.421 36.8406 286.436 39.0294 287.693 41.8899L279.826 46.1158C278.006 42.9085 275.384 41.3048 271.96 41.3048C269.316 41.3048 267.127 42.1717 265.393 43.9053C263.66 45.639 262.793 48.0011 262.793 50.9917C262.793 53.9823 263.66 56.3445 265.393 58.0781C267.127 59.8118 269.316 60.6786 271.96 60.6786C275.427 60.6786 278.049 59.075 279.826 55.8677L287.693 60.1585C286.436 62.9324 284.421 65.0995 281.647 66.6598C278.916 68.2201 275.709 69.0003 272.025 69.0003ZM309.731 69.0003C306.047 69.0003 302.732 68.2418 299.784 66.7248C296.881 65.1645 294.605 63.0191 292.958 60.2886C291.311 57.558 290.488 54.4591 290.488 50.9917C290.488 47.5244 291.311 44.4254 292.958 41.6949C294.605 38.9644 296.881 36.8406 299.784 35.3236C302.732 33.7633 306.047 32.9832 309.731 32.9832C313.416 32.9832 316.71 33.7633 319.613 35.3236C322.517 36.8406 324.793 38.9644 326.44 41.6949C328.087 44.4254 328.91 47.5244 328.91 50.9917C328.91 54.4591 328.087 57.558 326.44 60.2886C324.793 63.0191 322.517 65.1645 319.613 66.7248C316.71 68.2418 313.416 69.0003 309.731 69.0003ZM309.731 60.6786C312.332 60.6786 314.456 59.8118 316.103 58.0781C317.793 56.3011 318.638 53.939 318.638 50.9917C318.638 48.0445 317.793 45.704 316.103 43.9703C314.456 42.1933 312.332 41.3048 309.731 41.3048C307.131 41.3048 304.986 42.1933 303.295 43.9703C301.605 45.704 300.76 48.0445 300.76 50.9917C300.76 53.939 301.605 56.3011 303.295 58.0781C304.986 59.8118 307.131 60.6786 309.731 60.6786Z" fill="#0E2335"/>
</g>
<defs>
<clipPath id="clip0_1710_354">
<rect width="332" height="91.0181" fill="white"/>
</clipPath>
</defs>
</svg>
